<svg xmlns="http://www.w3.org/2000/svg" viewBox="0 0 900 600">
  <!-- Китай флаг: красный фон с желтыми звездами -->
  <rect width="900" height="600" fill="#EE1C25"/>
  <!-- Большая звезда -->
  <g fill="#FFFF00">
    <polygon points="180,120 190,150 220,150 198,168 208,198 180,180 152,198 162,168 140,150 170,150" transform="scale(1.5)"/>
    <!-- Малые звезды -->
    <polygon points="320,80 325,95 340,95 328,105 333,120 320,112 307,120 312,105 300,95 315,95"/>
    <polygon points="320,140 325,155 340,155 328,165 333,180 320,172 307,180 312,165 300,155 315,155"/>
    <polygon points="320,200 325,215 340,215 328,225 333,240 320,232 307,240 312,225 300,215 315,215"/>
    <polygon points="320,260 325,275 340,275 328,285 333,300 320,292 307,300 312,285 300,275 315,275"/>
  </g>
</svg>